<?xml version="1.0" encoding="utf-8"?><svg xmlns="http://www.w3.org/2000/svg" xmlns:xlink="http://www.w3.org/1999/xlink"><symbol fill="none" viewBox="0 0 24 24" id="facebook" xmlns="http://www.w3.org/2000/svg"><g clip-path="url(#aa)"><path d="M24 12c0-6.627-5.373-12-12-12S0 5.373 0 12c0 5.99 4.388 10.954 10.125 11.854V15.47H7.078V12h3.047V9.356c0-3.007 1.792-4.668 4.533-4.668 1.312 0 2.686.234 2.686.234v2.953H15.83c-1.491 0-1.956.925-1.956 1.875V12h3.328l-.532 3.469h-2.796v8.385C19.612 22.954 24 17.99 24 12Z" fill="#1877F2"/><path d="M16.671 15.469 17.203 12h-3.328V9.75c0-.949.465-1.875 1.956-1.875h1.513V4.922s-1.374-.234-2.686-.234c-2.741 0-4.533 1.66-4.533 4.668V12H7.078v3.469h3.047v8.385a12.13 12.13 0 0 0 3.75 0V15.47h2.796Z" fill="#fff"/></g><defs><clipPath id="aa"><path fill="#fff" d="M0 0h24v24H0z"/></clipPath></defs></symbol><symbol fill="none" viewBox="0 0 32 32" id="fairing" xmlns="http://www.w3.org/2000/svg"><g clip-path="url(#ba)" fill="#1E233C"><path d="M25.642 8.201 8.659 11.388C7.282 11.648 6 10.574 6 9.163v-3.11c0-1.385.979-2.589 2.33-2.823L25.304.043c1.377-.26 2.659.814 2.659 2.226v3.11a2.87 2.87 0 0 1-2.33 2.822h.009ZM25.641 20.534l-8.651 1.628v-5.846c0-1.385.978-2.59 2.33-2.823l5.992-1.126c1.377-.26 2.66.814 2.66 2.226v3.109c0 1.385-.98 2.59-2.33 2.823v.009ZM14.652 30.857l-5.993 1.1C7.282 32.217 6 31.142 6 29.73v-3.11c0-1.385.979-2.589 2.33-2.822l8.651-1.629v5.846c0 1.386-.978 2.59-2.33 2.85v-.01Z"/></g><defs><clipPath id="ba"><path fill="#fff" transform="translate(6)" d="M0 0h21.971v32H0z"/></clipPath></defs></symbol><symbol fill="none" viewBox="0 0 20 20" id="globe" xmlns="http://www.w3.org/2000/svg"><g clip-path="url(#ca)"><path fill-rule="evenodd" clip-rule="evenodd" d="M20 10c0 5.52-4.472 9.994-9.99 10h-.022C4.47 19.994 0 15.519 0 10 0 4.477 4.477 0 10 0s10 4.477 10 10ZM3.07 6a8.025 8.025 0 0 1 4.262-3.544A12.802 12.802 0 0 0 5.595 6H3.07Zm-.818 2A8.015 8.015 0 0 0 2 10c0 .69.088 1.36.252 2h2.89A13.886 13.886 0 0 1 5 10c0-.704.051-1.371.143-2H2.252Zm4.916 0C7.06 8.62 7 9.286 7 10c0 .713.061 1.38.168 2h5.664c.107-.62.168-1.287.168-2 0-.714-.061-1.38-.168-2H7.168Zm7.69 0c.09.629.142 1.296.142 2s-.051 1.371-.143 2h2.891c.165-.64.252-1.31.252-2s-.087-1.36-.252-2h-2.89Zm2.072-2h-2.525a12.805 12.805 0 0 0-1.737-3.544A8.025 8.025 0 0 1 16.93 6Zm-4.638 0H7.708c.324-.865.725-1.596 1.124-2.195.422-.633.842-1.117 1.168-1.452.326.335.746.82 1.168 1.452.4.599.8 1.33 1.124 2.195Zm-1.124 10.195c.4-.599.8-1.33 1.124-2.195H7.708c.324.865.725 1.596 1.124 2.195.422.633.842 1.117 1.168 1.452.326-.335.746-.82 1.168-1.452ZM3.07 14h2.525a12.802 12.802 0 0 0 1.737 3.544A8.025 8.025 0 0 1 3.07 14Zm9.762 3.305a12.9 12.9 0 0 1-.164.24A8.025 8.025 0 0 0 16.93 14h-2.525a12.805 12.805 0 0 1-1.573 3.305Z" fill="#000"/></g><defs><clipPath id="ca"><path fill="#fff" d="M0 0h20v20H0z"/></clipPath></defs></symbol><symbol fill="none" viewBox="0 0 18 18" id="google" xmlns="http://www.w3.org/2000/svg"><path d="M11.539 5.188a2.972 2.972 0 0 0-1.074-4.041A2.921 2.921 0 0 0 6.457 2.23L.398 12.81a2.972 2.972 0 0 0 1.074 4.042 2.921 2.921 0 0 0 4.008-1.083l6.059-10.581Z" fill="#F8BB2D"/><path d="M5.87 14.29c0 1.635-1.314 2.96-2.935 2.96S0 15.925 0 14.29c0-1.633 1.314-2.958 2.935-2.958 1.62 0 2.935 1.325 2.935 2.959Z" fill="#3BA757"/><path d="M6.466 5.188A2.972 2.972 0 0 1 7.54 1.147a2.921 2.921 0 0 1 4.008 1.083l6.058 10.58a2.972 2.972 0 0 1-1.074 4.042 2.921 2.921 0 0 1-4.008-1.083L6.466 5.188Z" fill="#4689F2"/></symbol><symbol fill="none" viewBox="0 0 32 32" id="gorgias" xmlns="http://www.w3.org/2000/svg"><g clip-path="url(#ea)" fill="#1E233C"><path d="M25.642 8.201 8.659 11.388C7.282 11.648 6 10.574 6 9.163v-3.11c0-1.385.979-2.589 2.33-2.823L25.304.043c1.377-.26 2.659.814 2.659 2.226v3.11a2.87 2.87 0 0 1-2.33 2.822h.009ZM25.641 20.534l-8.651 1.628v-5.846c0-1.385.978-2.59 2.33-2.823l5.992-1.126c1.377-.26 2.66.814 2.66 2.226v3.109c0 1.385-.98 2.59-2.33 2.823v.009ZM14.652 30.857l-5.993 1.1C7.282 32.217 6 31.142 6 29.73v-3.11c0-1.385.979-2.589 2.33-2.822l8.651-1.629v5.846c0 1.386-.978 2.59-2.33 2.85v-.01Z"/></g><defs><clipPath id="ea"><path fill="#fff" transform="translate(6)" d="M0 0h21.971v32H0z"/></clipPath></defs></symbol><symbol fill="none" viewBox="0 0 20 14" id="klaviyo" xmlns="http://www.w3.org/2000/svg"><path d="M20 13.333H0V0h20l-4.189 6.667L20 13.333Z" fill="#000"/></symbol><symbol viewBox="0 0 348 468" id="kno" xmlns="http://www.w3.org/2000/svg"><path d="M0 117.4c0 106.1.2 117.4 1.6 118 2.8 1.1 110.4.7 112.5-.4 1.9-1 1.9-3.4 1.9-118V0H0v117.4zM271.6 122.6c-15.8 6.3-27 17.4-33.7 33.6-2.4 5.9-3.3 10-4.3 21.4-1 9.9-1.9 15.2-3.4 18-1 2.1-2.3 5-2.7 6.4-1.2 4-7.8 13.1-12.7 17.6-11.2 10.4-22.7 15-40.1 16.3-11.8.9-19.7 3-28.6 7.5-7.4 3.9-21.7 19.4-23.6 25.8-.4 1.2-1.9 4.7-3.2 7.7-2.3 4.7-2.6 6.7-2.6 17 0 11.2.1 11.9 3.9 21.3 6.4 16 17.8 27.3 34.1 33.8 6.4 2.6 10 3.3 20 4.1 9.8.7 13.7 1.5 20 4 18 7.2 28.8 18.1 35.4 35.9l3.2 8.5.5 33.2.5 33.3H348V353.1l-34.2-.3-34.3-.3-8.6-3.8c-15.6-6.9-27.3-18.6-33.1-33.1-3-7.6-3.2-8.9-3.3-20.6 0-11.6.2-13.1 2.9-20 6.8-17.1 17.9-28.5 34.2-35 6.5-2.6 10.1-3.3 19.9-4 22.1-1.6 36.3-9.1 48.4-25.5 2-2.8 4.2-6.2 4.9-7.8.6-1.5 1.6-2.7 2.2-2.7.6 0 1-8.2 1-23.6 0-15-.4-23.3-1-22.9-.5.3-1.9-1.4-3.1-3.9-2.8-6.1-12.9-16.9-20.3-21.7-3.3-2.1-6.5-3.9-7.2-3.9-.7 0-3.6-1.1-6.6-2.5-4.7-2.2-6.6-2.5-17.3-2.4-11.4 0-12.5.2-20.9 3.5zM47.4 354c-2.2.4-7.6 2.2-12 3.9C22 363.1 10 375.3 3.2 390.5l-2.7 6-.3 35.8L0 468h116v-65.9l-3.5-9.8c-2.8-7.7-4.8-11.3-9.4-16.8-10.9-13.2-26.4-21.3-42.5-22-5-.2-10.9 0-13.2.5z"/></symbol><symbol fill="none" viewBox="0 0 18 18" id="microsoft" xmlns="http://www.w3.org/2000/svg"><path fill="#FEBA08" d="M9.75 9.75h7.5v7.5h-7.5z"/><path fill="#05A6F0" d="M.75 9.75h7.5v7.5H.75z"/><path fill="#80BC06" d="M9.75.75h7.5v7.5h-7.5z"/><path fill="#F25325" d="M.75.75h7.5v7.5H.75z"/></symbol><symbol fill="none" viewBox="0 0 22 22" id="pinterest" xmlns="http://www.w3.org/2000/svg"><path d="M11 21.5c5.799 0 10.5-4.701 10.5-10.5S16.799.5 11 .5.5 5.201.5 11c0 4.26 2.537 7.928 6.183 9.574l.015-.307c.006-.122.011-.216.011-.269 0-.315.215-1.88.215-1.88l1.312-5.389c-.202-.328-.353-1.022-.353-1.552 0-2.449 1.363-2.979 2.196-2.979 1.06 0 1.3 1.149 1.3 1.994 0 .448-.232 1.148-.471 1.868-.253.764-.514 1.55-.514 2.082 0 1.035 1.022 1.553 1.73 1.553 1.867 0 3.583-2.348 3.583-4.695 0-2.347-1.098-5.187-4.694-5.187-3.597 0-5.213 2.739-5.213 4.834 0 1.413.53 2.448.796 2.625.075.067.204.275.113.567-.09.293-.256.947-.328 1.237-.008.068-.088.182-.34.101-.316-.1-2.323-1.363-2.323-4.53 0-3.168 2.486-6.853 7.295-6.853 4.808 0 7.269 3.23 7.269 7.206 0 3.975-3.218 6.512-5.667 6.512-1.958 0-2.726-.875-2.864-1.313l-.745 2.84c-.176.471-.504 1.318-.908 2.055.922.264 1.895.406 2.902.406Z" fill="#BB0F23"/></symbol><symbol fill="none" viewBox="0 0 20 20" id="shopify" xmlns="http://www.w3.org/2000/svg"><g clip-path="url(#ja)"><path d="M16.56 3.928a.192.192 0 0 0-.174-.161l-1.601-.12-1.18-1.17c-.116-.118-.344-.082-.432-.056l-.594.184c-.355-1.021-.981-1.96-2.083-1.96l-.093.003C10.09.234 9.702.054 9.367.054 6.8.054 5.574 3.262 5.19 4.892l-1.796.557c-.556.175-.574.192-.647.717-.055.397-1.511 11.659-1.511 11.659l11.347 2.126 6.149-1.33S16.573 4.028 16.56 3.928Zm-4.608-1.13-.96.298v-.207c0-.635-.088-1.146-.23-1.55.568.07.946.716 1.19 1.46Zm-1.893-1.334c.157.395.26.963.26 1.729v.11l-1.984.615c.382-1.474 1.098-2.185 1.723-2.454ZM9.296.742a.58.58 0 0 1 .33.111c-.823.387-1.705 1.362-2.077 3.308l-1.568.486C6.418 3.162 7.453.742 9.296.742Z" fill="#95BF46"/><path d="m16.386 3.767-1.602-.12-1.178-1.17a.29.29 0 0 0-.164-.076l-.858 17.55 6.148-1.33S16.573 4.028 16.56 3.928a.192.192 0 0 0-.174-.161Z" fill="#5E8E3E"/><path d="M10.496 7.164 9.738 9.42s-.664-.354-1.479-.354c-1.193 0-1.253.749-1.253.938 0 1.03 2.684 1.424 2.684 3.837 0 1.898-1.203 3.12-2.827 3.12-1.948 0-2.944-1.212-2.944-1.212l.522-1.723s1.024.879 1.888.879c.564 0 .794-.445.794-.77 0-1.343-2.203-1.403-2.203-3.61 0-1.859 1.334-3.657 4.026-3.657 1.037 0 1.55.297 1.55.297Z" fill="#fff"/></g><defs><clipPath id="ja"><path fill="#fff" d="M0 0h20v20H0z"/></clipPath></defs></symbol><symbol fill="none" viewBox="0 0 24 24" id="slack" xmlns="http://www.w3.org/2000/svg"><path d="M5.068 15.168a2.517 2.517 0 0 1-2.52 2.52 2.517 2.517 0 0 1-2.519-2.52 2.517 2.517 0 0 1 2.52-2.52h2.519v2.52ZM6.326 15.168a2.517 2.517 0 0 1 2.52-2.52 2.517 2.517 0 0 1 2.519 2.52v6.298a2.517 2.517 0 0 1-2.52 2.52 2.517 2.517 0 0 1-2.519-2.52v-6.298Z" fill="#E01E5A"/><path d="M8.845 5.053a2.517 2.517 0 0 1-2.519-2.52A2.517 2.517 0 0 1 8.846.016a2.517 2.517 0 0 1 2.519 2.519v2.52h-2.52ZM8.846 6.332a2.517 2.517 0 0 1 2.52 2.519 2.517 2.517 0 0 1-2.52 2.52H2.53a2.517 2.517 0 0 1-2.52-2.52 2.517 2.517 0 0 1 2.52-2.52h6.317Z" fill="#36C5F0"/><path d="M18.941 8.851a2.517 2.517 0 0 1 2.52-2.52 2.517 2.517 0 0 1 2.519 2.52 2.517 2.517 0 0 1-2.52 2.52h-2.519V8.85ZM17.683 8.851a2.517 2.517 0 0 1-2.52 2.52 2.517 2.517 0 0 1-2.518-2.52V2.534a2.517 2.517 0 0 1 2.519-2.52 2.517 2.517 0 0 1 2.519 2.52V8.85Z" fill="#2EB67D"/><path d="M15.164 18.947a2.517 2.517 0 0 1 2.519 2.52 2.517 2.517 0 0 1-2.52 2.518 2.517 2.517 0 0 1-2.518-2.519v-2.52h2.519ZM15.164 17.687a2.517 2.517 0 0 1-2.52-2.519 2.517 2.517 0 0 1 2.52-2.52h6.317a2.517 2.517 0 0 1 2.52 2.52 2.517 2.517 0 0 1-2.52 2.52h-6.317Z" fill="#ECB22E"/></symbol><symbol fill="none" viewBox="0 0 24 24" id="snapchat" xmlns="http://www.w3.org/2000/svg"><circle cx="12" cy="12" r="10.5" fill="#FFFA37"/><path fill-rule="evenodd" clip-rule="evenodd" d="M15.77 6.14c-.725-.913-1.92-1.64-3.761-1.64-1.577.016-4.731.888-4.731 4.255 0 .492.039 1.15.073 1.636a1.205 1.205 0 0 1-.168-.071l-.01-.005a1.404 1.404 0 0 0-.64-.168c-.296 0-.58.116-.793.287-.21.17-.39.432-.39.749 0 .396.223.659.483.827.232.15.524.245.755.321l.022.008c.248.08.429.143.554.22.097.061.112.1.114.136a1.315 1.315 0 0 1-.079.186 6.028 6.028 0 0 1-.98 1.323 4.568 4.568 0 0 1-1.38.862c-.157.056-.271.078-.342.078a.523.523 0 0 0-.126.017 1.002 1.002 0 0 0-.295.133c-.136.092-.326.277-.326.569 0 .152.036.28.098.393.054.098.123.172.163.215l.006.006.011.012c.22.237.585.401.938.514.304.098.644.17.975.213l.015.07.002.008c.02.098.048.229.089.348.038.114.107.281.25.4.18.152.418.168.572.167.166 0 .36-.024.544-.046l.016-.002c.258-.031.529-.063.81-.063.51 0 .839.213 1.353.565l.004.002c.178.122.377.258.604.392.76.449 1.376.445 1.726.443h.131c.35.002.983.006 1.743-.443.227-.134.426-.27.604-.392l.004-.002c.514-.352.842-.565 1.354-.565.28 0 .55.032.81.063l.015.002c.184.022.378.046.544.046.154 0 .391-.014.572-.166a.882.882 0 0 0 .25-.4c.041-.12.069-.25.09-.349l.001-.008.015-.07c.331-.043.67-.116.975-.213.353-.113.718-.277.938-.514l.01-.012.007-.006c.04-.043.11-.117.163-.215a.795.795 0 0 0 .098-.393c0-.292-.19-.477-.327-.569a1.002 1.002 0 0 0-.294-.133.524.524 0 0 0-.126-.017c-.07 0-.185-.021-.342-.078a4.569 4.569 0 0 1-1.38-.863 6.028 6.028 0 0 1-.98-1.322 1.31 1.31 0 0 1-.079-.186c.002-.037.017-.075.114-.136.125-.077.306-.14.554-.22l.023-.008c.23-.076.522-.171.754-.32.26-.17.483-.432.483-.828 0-.317-.18-.578-.39-.749a1.283 1.283 0 0 0-.792-.287c-.292 0-.502.101-.64.168l-.011.005c-.078.037-.128.059-.168.07a26.07 26.07 0 0 0 .073-1.635c0-.667-.242-1.72-.953-2.616Zm-6.933.44c-.6.752-.806 1.645-.806 2.175 0 .492.041 1.176.077 1.666a.649.649 0 0 1-.164.503.693.693 0 0 1-.515.202c-.252 0-.444-.092-.567-.151l-.015-.007c-.137-.066-.209-.096-.315-.096a.515.515 0 0 0-.307.117c-.095.076-.122.151-.122.194 0 .087.032.15.15.226.14.09.34.158.6.244l.023.008c.217.07.485.159.697.29.238.149.458.387.458.754a.789.789 0 0 1-.052.26 2.007 2.007 0 0 1-.105.236 6.732 6.732 0 0 1-1.123 1.515 5.306 5.306 0 0 1-1.648 1.028 1.924 1.924 0 0 1-.556.123.271.271 0 0 0-.039.02l-.003.003.002.011.005.015a.45.45 0 0 0 .065.077l.012.013c.084.09.29.206.615.31.31.1.676.17 1.022.204a.44.44 0 0 1 .316.183c.043.06.068.123.083.165.028.082.05.182.066.261l.003.012c.022.108.042.2.069.277a.57.57 0 0 0 .025.063.663.663 0 0 0 .078.004c.16 0 .319-.024.477-.043.252-.03.564-.069.895-.069.767 0 1.274.346 1.763.68l.027.02c.18.123.362.247.566.367.575.34 1.012.337 1.332.335h.131c.322.002.774.005 1.349-.335.204-.12.385-.244.566-.368l.027-.019c.49-.334.996-.68 1.763-.68.33 0 .643.038.895.069h.008c.204.025.354.043.469.043a.665.665 0 0 0 .078-.004.572.572 0 0 0 .025-.063c.027-.077.047-.17.07-.277l.002-.012c.017-.08.038-.18.066-.26a.638.638 0 0 1 .083-.166.44.44 0 0 1 .316-.183 5.04 5.04 0 0 0 1.022-.204c.326-.104.531-.22.614-.31l.013-.013a.446.446 0 0 0 .065-.077.056.056 0 0 0 .005-.014l.002-.012-.003-.002a.212.212 0 0 0-.039-.02 1.924 1.924 0 0 1-.556-.124c-.2-.072-.407-.17-.606-.28a5.306 5.306 0 0 1-1.043-.749 6.732 6.732 0 0 1-1.122-1.514 1.997 1.997 0 0 1-.105-.237.788.788 0 0 1-.052-.259c0-.367.22-.605.458-.754.212-.132.48-.22.697-.29l.023-.008c.26-.086.46-.154.6-.244.118-.077.15-.139.15-.226 0-.043-.027-.118-.122-.194a.515.515 0 0 0-.307-.117c-.106 0-.178.03-.316.096l-.014.007c-.123.059-.315.151-.567.151a.693.693 0 0 1-.515-.202.649.649 0 0 1-.164-.503c.036-.49.077-1.174.077-1.666 0-.532-.202-1.425-.798-2.176-.583-.735-1.557-1.355-3.162-1.355-1.606 0-2.584.62-3.172 1.356Z" fill="#000"/><path fill-rule="evenodd" clip-rule="evenodd" d="M8.837 6.58c-.6.752-.806 1.645-.806 2.175 0 .492.041 1.176.077 1.666a.649.649 0 0 1-.164.503.692.692 0 0 1-.515.202c-.252 0-.444-.092-.567-.151l-.015-.007c-.137-.066-.209-.096-.315-.096a.515.515 0 0 0-.307.117c-.095.076-.122.151-.122.194 0 .087.032.15.15.226.14.09.34.159.6.244l.023.008c.217.07.485.159.697.29.238.149.458.387.458.754a.788.788 0 0 1-.052.26 2.017 2.017 0 0 1-.105.236 5.17 5.17 0 0 1-.315.522c-.243.359-.551.746-.808.992a5.302 5.302 0 0 1-1.648 1.03 1.924 1.924 0 0 1-.556.122.216.216 0 0 0-.039.02l-.003.003a.1.1 0 0 0 .002.011l.005.015a.443.443 0 0 0 .065.077l.012.013c.084.09.29.206.615.31.31.1.676.17 1.022.204a.44.44 0 0 1 .316.183c.043.06.068.123.083.165.028.082.05.182.066.261l.003.012c.022.108.042.2.069.277.009.027.017.048.025.064a.71.71 0 0 0 .078.003c.16 0 .319-.024.477-.043.252-.03.564-.069.895-.069.767 0 1.273.346 1.762.68l.028.02c.18.123.362.247.566.367.575.34 1.012.337 1.331.335h.131c.323.002.775.005 1.35-.335.204-.12.385-.244.566-.368l.027-.018c.49-.335.996-.68 1.763-.68.33 0 .643.037.895.068h.008c.204.025.353.043.469.043a.71.71 0 0 0 .078-.003.572.572 0 0 0 .025-.064 2.57 2.57 0 0 0 .07-.277l.002-.012c.017-.08.038-.18.066-.26a.634.634 0 0 1 .083-.166.44.44 0 0 1 .315-.183 5.053 5.053 0 0 0 1.023-.204c.326-.104.531-.22.614-.31l.013-.013a.448.448 0 0 0 .065-.077.058.058 0 0 0 .005-.014l.002-.012-.003-.002a.224.224 0 0 0-.039-.02 1.925 1.925 0 0 1-.556-.124c-.2-.072-.407-.17-.606-.28a5.303 5.303 0 0 1-1.043-.749 6.721 6.721 0 0 1-.807-.992 5.173 5.173 0 0 1-.316-.522 2.039 2.039 0 0 1-.104-.237.79.79 0 0 1-.052-.259c0-.367.22-.605.458-.753.212-.133.48-.22.697-.291l.023-.008c.26-.085.46-.154.6-.244.118-.076.15-.139.15-.226 0-.043-.027-.118-.122-.194a.515.515 0 0 0-.307-.117c-.106 0-.178.03-.316.096l-.014.007c-.123.059-.315.151-.567.151a.692.692 0 0 1-.515-.202.649.649 0 0 1-.164-.503c.036-.49.077-1.174.077-1.666 0-.532-.202-1.425-.798-2.176-.583-.734-1.557-1.355-3.162-1.355-1.606 0-2.585.62-3.172 1.356Z" fill="#fff"/></symbol><symbol viewBox="0 0 100 100" id="svg--sprite.symbol" xmlns="http://www.w3.org/2000/svg"/><symbol fill="none" viewBox="0 0 24 24" id="tiktok" xmlns="http://www.w3.org/2000/svg"><path d="M17.176 8.663a9.362 9.362 0 0 0 5.476 1.76V6.478c-.386 0-.772-.04-1.15-.121v3.104a9.364 9.364 0 0 1-5.476-1.759v8.048c0 4.026-3.252 7.289-7.263 7.289a7.21 7.21 0 0 1-4.043-1.233A7.228 7.228 0 0 0 9.913 24c4.011 0 7.263-3.263 7.263-7.29V8.664Zm1.419-3.978a5.506 5.506 0 0 1-1.419-3.218V.96h-1.09a5.521 5.521 0 0 0 2.509 3.725ZM7.257 18.718a3.328 3.328 0 0 1-.678-2.019 3.328 3.328 0 0 1 4.33-3.178V9.49a7.302 7.302 0 0 0-1.15-.067v3.138a3.328 3.328 0 0 0-4.33 3.178c0 1.302.744 2.43 1.828 2.979Z" fill="#FF004F"/><path d="M16.027 7.703a9.364 9.364 0 0 0 5.476 1.759V6.358a5.492 5.492 0 0 1-2.907-1.673A5.522 5.522 0 0 1 16.087.96h-2.862v15.75a3.329 3.329 0 0 1-3.323 3.324 3.314 3.314 0 0 1-2.645-1.316 3.335 3.335 0 0 1-1.827-2.979 3.328 3.328 0 0 1 4.33-3.178V9.423c-3.94.082-7.11 3.313-7.11 7.288 0 1.984.79 3.782 2.07 5.096a7.21 7.21 0 0 0 4.044 1.233c4.011 0 7.263-3.264 7.263-7.29V7.704Z" fill="#000"/><path d="M21.503 6.358v-.84a5.46 5.46 0 0 1-2.908-.833 5.487 5.487 0 0 0 2.908 1.673ZM16.087.96a5.611 5.611 0 0 1-.06-.453V0h-3.953v15.75a3.328 3.328 0 0 1-3.322 3.324 3.299 3.299 0 0 1-1.495-.356 3.314 3.314 0 0 0 2.645 1.316 3.329 3.329 0 0 0 3.322-3.323V.96h2.863ZM9.76 9.423V8.53a7.308 7.308 0 0 0-.996-.068c-4.012 0-7.264 3.263-7.264 7.289a7.289 7.289 0 0 0 3.22 6.056 7.278 7.278 0 0 1-2.07-5.096c0-3.974 3.17-7.206 7.11-7.288Z" fill="#00F2EA"/></symbol><symbol fill="none" viewBox="0 0 20 15" id="triple-whale-logo" xmlns="http://www.w3.org/2000/svg"><g clip-path="url(#na)"><mask id="nb" style="mask-type:luminance" maskUnits="userSpaceOnUse" x="0" y="-1" width="20" height="16"><path d="M20 0H0v14.918h20V0Z" fill="#fff"/></mask><g mask="url(#nb)" fill-rule="evenodd" clip-rule="evenodd" fill="#0C70F2"><path d="M13.719 14.494a.385.385 0 0 1-.39.423H7.49a.396.396 0 0 1-.4-.4V6.377a.427.427 0 0 0-.367-.416C5.493 5.771 1.547 4.804.023.53A.402.402 0 0 1 .382 0H4.8c3.65.16 6.388 2.495 7.49 5.667l.007-.007c.917 2.644 1.317 7.397 1.422 8.834ZM19.98.461c-1.438 4.137-4.394 5.097-6.103 5.455a.36.36 0 0 1-.405-.258c-.545-1.925-1.301-2.98-2.284-3.889-.167-.153-.16-.423.033-.544C12.37.465 13.79.004 15.562.002V0h4.083c.24 0 .416.237.334.461Z"/></g></g><defs><clipPath id="na"><path fill="#fff" d="M0 0h20v14.918H0z"/></clipPath></defs></symbol><symbol fill="none" viewBox="0 0 24 20" id="twitter" xmlns="http://www.w3.org/2000/svg"><path d="M7.548 19.75c9.056 0 14.01-7.503 14.01-14.01 0-.213 0-.425-.015-.636A10.02 10.02 0 0 0 24 2.555a9.815 9.815 0 0 1-2.828.775A4.94 4.94 0 0 0 23.337.606a9.864 9.864 0 0 1-3.127 1.196 4.929 4.929 0 0 0-8.391 4.49A13.98 13.98 0 0 1 1.67 1.149 4.928 4.928 0 0 0 3.195 7.72 4.88 4.88 0 0 1 .96 7.105v.062a4.926 4.926 0 0 0 3.95 4.827 4.915 4.915 0 0 1-2.223.084 4.93 4.93 0 0 0 4.6 3.42A9.88 9.88 0 0 1 0 17.538a13.941 13.941 0 0 0 7.548 2.209" fill="#1DA1F2"/></symbol></svg>